<?xml version="1.0" standalone="no"?>
<!DOCTYPE svg PUBLIC "-//W3C//DTD SVG 20010904//EN"
 "http://www.w3.org/TR/2001/REC-SVG-20010904/DTD/svg10.dtd">
<svg version="1.0" xmlns="http://www.w3.org/2000/svg"
 width="512.000000pt" height="512.000000pt" viewBox="0 0 512.000000 512.000000"
 preserveAspectRatio="xMidYMid meet">

<g transform="translate(0.000000,512.000000) scale(0.100000,-0.100000)"
fill="#ffffff" stroke="none">
<path d="M870 4414 c-90 -18 -190 -68 -252 -128 -57 -55 -171 -198 -243 -306
-178 -266 -301 -589 -351 -920 -24 -162 -25 -485 -1 -638 26 -166 71 -333 108
-402 63 -118 196 -210 330 -227 143 -19 248 15 399 127 114 85 227 155 325
200 84 39 244 95 250 88 2 -2 -2 -31 -10 -63 -23 -101 -44 -264 -51 -395 -13
-266 45 -650 122 -803 84 -165 284 -266 469 -237 92 14 152 43 255 121 126 95
203 142 320 198 466 222 985 215 1450 -19 103 -52 175 -98 277 -177 98 -77
165 -108 259 -124 187 -31 397 81 477 253 30 66 70 226 94 378 23 149 23 487
-1 637 -70 445 -249 835 -529 1154 -138 157 -241 206 -411 197 -105 -6 -162
-27 -277 -106 -73 -48 -159 -96 -163 -90 -1 2 -12 50 -25 108 -64 293 -200
590 -384 837 -191 256 -308 336 -492 337 -105 1 -175 -23 -287 -96 -221 -145
-388 -193 -663 -192 -261 1 -436 53 -640 190 -44 30 -107 63 -139 75 -59 20
-168 32 -216 23z m124 -223 c21 -5 75 -34 121 -64 231 -154 458 -220 760 -220
176 0 303 19 452 68 120 40 185 72 311 153 104 67 159 82 233 62 61 -17 104
-50 184 -147 155 -185 291 -426 365 -642 31 -91 80 -289 80 -322 0 -13 -18
-19 -88 -28 -138 -17 -132 -19 -126 37 4 37 0 57 -18 92 -74 143 -289 94 -292
-67 -1 -25 -6 -43 -13 -43 -21 0 -191 59 -235 81 -24 12 -81 48 -128 79 -123
82 -163 95 -295 95 -127 -1 -185 -19 -270 -83 -141 -107 -362 -424 -475 -682
-23 -52 -43 -96 -45 -98 -1 -2 -45 -14 -96 -27 -258 -65 -465 -170 -735 -370
-71 -52 -135 -69 -203 -54 -112 25 -161 82 -200 235 -44 174 -55 270 -55 494
0 223 11 320 55 495 72 286 232 598 420 817 112 131 182 164 293 139z m1401
-1094 c17 -5 58 -30 93 -55 35 -24 103 -63 150 -87 394 -195 959 -173 1308 52
146 94 171 105 232 105 100 1 143 -26 257 -162 385 -462 544 -1095 424 -1691
-43 -217 -82 -284 -186 -321 -90 -32 -160 -17 -258 58 -411 314 -871 452
-1346 403 -369 -37 -650 -152 -1003 -409 -79 -58 -130 -75 -195 -65 -114 17
-180 84 -215 222 -82 315 -85 654 -11 973 60 258 166 494 319 710 80 113 190
236 227 256 62 32 136 36 204 11z"/>
<path d="M957 3644 c-32 -7 -67 -19 -78 -25 -34 -18 -49 -70 -49 -174 l0 -95
-109 0 c-100 0 -112 -2 -136 -22 -34 -30 -55 -111 -55 -218 0 -103 21 -185 55
-219 23 -24 33 -26 134 -29 l109 -4 4 -109 c3 -101 5 -111 29 -134 73 -74 373
-73 437 0 20 24 22 36 22 136 l0 109 98 0 c130 0 160 15 185 88 43 131 27 321
-33 375 -29 26 -34 27 -140 27 l-110 0 0 110 c0 106 -1 111 -27 140 -49 53
-211 75 -336 44z m183 -299 c0 -120 1 -127 25 -150 23 -24 30 -25 150 -25
l125 0 0 -60 0 -60 -119 0 c-114 0 -121 -1 -150 -26 l-30 -25 -3 -127 -3 -127
-57 -3 -58 -3 0 115 c0 182 -14 196 -195 196 l-116 0 3 58 3 57 126 3 c120 2
127 4 150 28 22 24 24 35 27 150 l4 124 59 0 59 0 0 -125z"/>
<path d="M2738 3610 c-107 -33 -149 -158 -83 -246 71 -93 209 -80 263 26 26
51 24 102 -6 152 -32 55 -115 87 -174 68z"/>
<path d="M2375 2570 c-156 -24 -168 -38 -174 -192 l-3 -108 -100 0 c-141 0
-158 -11 -187 -125 -22 -82 -12 -223 21 -308 17 -44 54 -57 168 -57 l100 0 0
-87 c0 -105 13 -158 43 -177 64 -40 248 -52 349 -22 87 25 98 45 98 177 l0
109 109 0 c102 0 111 2 139 25 81 68 81 372 0 440 -28 23 -37 25 -139 25
l-109 0 0 109 c0 94 -3 112 -21 135 -35 44 -186 73 -294 56z m135 -310 c3 -69
9 -131 14 -139 18 -28 75 -41 180 -41 l104 0 3 -27 c2 -16 3 -40 1 -55 l-3
-28 -105 0 c-105 0 -162 -13 -180 -41 -5 -8 -11 -70 -14 -139 l-5 -125 -57 -3
-58 -3 0 116 c0 122 -11 164 -47 181 -10 4 -72 10 -138 13 l-120 6 0 50 0 50
120 6 c66 3 128 9 138 13 36 17 47 59 47 181 l0 116 58 -3 57 -3 5 -125z"/>
<path d="M4074 2511 c-77 -47 -100 -122 -62 -198 33 -67 66 -88 138 -88 63 0
95 16 134 69 29 38 29 124 0 163 -53 71 -144 94 -210 54z"/>
<path d="M3720 2158 c-55 -38 -74 -72 -74 -133 0 -39 5 -62 20 -82 73 -98 195
-98 268 0 15 21 21 43 21 82 0 88 -67 155 -155 155 -32 0 -57 -7 -80 -22z"/>
<path d="M4420 2157 c-93 -62 -97 -194 -8 -260 16 -12 48 -22 80 -25 44 -3 59
0 87 20 49 33 72 69 78 121 14 124 -134 214 -237 144z"/>
<path d="M4084 1816 c-39 -17 -71 -58 -84 -107 -13 -47 -5 -84 27 -127 31 -42
72 -62 123 -62 61 0 107 26 137 77 76 130 -63 280 -203 219z"/>
</g>
</svg>
