<?xml version="1.0" standalone="no"?>
<!DOCTYPE svg PUBLIC "-//W3C//DTD SVG 20010904//EN"
 "http://www.w3.org/TR/2001/REC-SVG-20010904/DTD/svg10.dtd">
<svg version="1.0" xmlns="http://www.w3.org/2000/svg"
 width="300.000000pt" height="300.000000pt" viewBox="0 0 300.000000 300.000000"
 preserveAspectRatio="xMidYMid meet">

<g transform="translate(0.000000,300.000000) scale(0.100000,-0.100000)"
fill="#ffffff" stroke="none">
<path d="M772 2510 c-106 -28 -167 -65 -257 -155 -153 -153 -264 -401 -350
-783 -121 -536 -83 -905 107 -1042 96 -70 227 -77 346 -20 56 27 92 57 212
180 154 156 195 185 306 214 131 33 380 45 564 26 198 -21 293 -60 385 -159
156 -169 212 -219 291 -257 72 -36 84 -39 163 -39 100 0 153 20 220 81 179
161 193 536 42 1126 -87 341 -192 552 -345 696 -106 98 -205 140 -356 149 -90
5 -106 3 -265 -38 -169 -44 -171 -44 -340 -43 -166 0 -173 1 -329 42 -184 49
-273 53 -394 22z m343 -200 c285 -79 467 -79 755 -3 117 30 147 35 220 31 182
-9 292 -102 406 -342 79 -166 148 -415 194 -696 66 -409 12 -640 -151 -640
-70 0 -114 31 -269 189 -126 128 -155 152 -220 184 -41 20 -114 46 -162 57
-197 47 -599 44 -791 -4 -174 -44 -238 -89 -437 -303 -41 -44 -94 -90 -117
-102 -79 -39 -162 -22 -201 41 -89 145 -78 473 28 899 103 411 248 647 431
704 77 24 191 18 314 -15z"/>
<path d="M887 2049 c-33 -19 -47 -72 -47 -174 l0 -95 -106 0 c-116 0 -136 -6
-160 -51 -19 -38 -11 -79 22 -110 23 -22 36 -24 134 -27 l108 -4 4 -108 c3
-98 5 -111 27 -134 31 -33 72 -41 110 -22 45 24 51 44 51 160 l0 106 95 0
c140 0 185 24 185 100 0 22 -9 41 -29 61 -29 29 -31 29 -140 29 l-111 0 0 111
c0 109 0 111 -29 140 -31 31 -79 38 -114 18z"/>
<path d="M1904 2041 c-29 -18 -54 -63 -54 -98 0 -30 34 -84 61 -98 94 -49 205
43 166 137 -31 73 -108 99 -173 59z"/>
<path d="M1632 1771 c-36 -37 -46 -81 -28 -124 22 -52 52 -72 106 -72 40 0 54
5 79 29 36 35 46 74 31 121 -17 50 -53 75 -111 75 -39 0 -53 -5 -77 -29z"/>
<path d="M2150 1773 c-101 -91 10 -250 130 -188 42 21 60 53 60 103 0 37 -6
50 -34 78 -29 29 -41 34 -80 34 -36 0 -52 -6 -76 -27z"/>
<path d="M1923 1536 c-37 -17 -73 -69 -73 -107 0 -41 40 -92 86 -108 37 -13
44 -12 80 5 25 12 45 32 57 57 17 33 17 42 5 79 -22 69 -91 102 -155 74z"/>
</g>
</svg>
